<?xml version="1.0" encoding="UTF-8"?>
<svg xmlns="http://www.w3.org/2000/svg" xmlns:xlink="http://www.w3.org/1999/xlink" width="612" height="792" viewBox="0 0 612 792">
<path fill-rule="nonzero" fill="rgb(21.568298%, 20.391846%, 20.783997%)" fill-opacity="1" d="M 611.851562 18.886719 L 1193.589844 18.886719 L 1193.589844 715.660156 C 1193.589844 731.578125 1187.082031 746.046875 1176.59375 756.535156 C 1166.105469 767.023438 1151.632812 773.535156 1135.71875 773.535156 L 611.851562 773.535156 L 611.851562 770.535156 L 1135.71875 770.535156 C 1150.808594 770.535156 1164.527344 764.359375 1174.472656 754.414062 C 1184.417969 744.46875 1190.589844 730.75 1190.589844 715.660156 L 1190.589844 21.886719 L 611.851562 21.886719 Z M 611.851562 18.886719 "/>
<path fill-rule="nonzero" fill="rgb(96.078491%, 96.078491%, 96.078491%)" fill-opacity="1" d="M 611.851562 101.6875 C 760.28125 101.785156 908.878906 139.542969 1192.089844 214.96875 L 1192.089844 215.195312 C 908.871094 139.761719 760.273438 102.003906 611.851562 101.90625 Z M 611.851562 101.6875 "/>
<path fill-rule="nonzero" fill="rgb(96.078491%, 96.078491%, 96.078491%)" fill-opacity="1" d="M 611.851562 95.914062 C 760.28125 96.011719 908.878906 133.769531 1192.089844 209.195312 L 1192.089844 209.417969 C 908.871094 133.988281 760.277344 96.230469 611.851562 96.132812 Z M 611.851562 95.914062 "/>
<path fill-rule="nonzero" fill="rgb(96.078491%, 96.078491%, 96.078491%)" fill-opacity="1" d="M 611.851562 107.460938 C 760.28125 107.558594 908.878906 145.316406 1192.089844 220.746094 L 1192.089844 220.96875 C 908.871094 145.539062 760.273438 107.777344 611.851562 107.679688 Z M 611.851562 107.460938 "/>
<path fill-rule="nonzero" fill="rgb(96.078491%, 96.078491%, 96.078491%)" fill-opacity="1" d="M 611.851562 113.234375 C 760.28125 113.332031 908.878906 151.089844 1192.089844 226.519531 L 1192.089844 226.742188 C 908.871094 151.3125 760.277344 113.554688 611.851562 113.457031 Z M 611.851562 113.234375 "/>
<path fill-rule="nonzero" fill="rgb(78.039551%, 78.823853%, 79.608154%)" fill-opacity="1" d="M 611.851562 119.011719 C 760.28125 119.109375 908.878906 156.867188 1192.089844 232.292969 L 1192.089844 232.515625 C 908.871094 157.085938 760.273438 119.328125 611.851562 119.230469 Z M 611.851562 119.011719 "/>
<path fill-rule="nonzero" fill="rgb(78.039551%, 78.823853%, 79.608154%)" fill-opacity="1" d="M 611.851562 124.785156 C 760.28125 124.882812 908.878906 162.640625 1192.089844 238.066406 L 1192.089844 238.289062 C 908.871094 162.859375 760.273438 125.101562 611.851562 125.003906 Z M 611.851562 124.785156 "/>
<path fill-rule="nonzero" fill="rgb(78.039551%, 78.823853%, 79.608154%)" fill-opacity="1" d="M 611.851562 130.558594 C 760.28125 130.65625 908.878906 168.414062 1192.089844 243.84375 L 1192.089844 244.066406 C 908.871094 168.636719 760.273438 130.875 611.851562 130.777344 Z M 611.851562 130.558594 "/>
<path fill-rule="nonzero" fill="rgb(78.039551%, 78.823853%, 79.608154%)" fill-opacity="1" d="M 611.851562 136.332031 C 760.28125 136.429688 908.878906 174.1875 1192.089844 249.617188 L 1192.089844 249.839844 C 908.871094 174.410156 760.273438 136.648438 611.851562 136.550781 Z M 611.851562 136.332031 "/>
<path fill-rule="nonzero" fill="rgb(58.824158%, 59.608459%, 60.392761%)" fill-opacity="1" d="M 611.851562 142.109375 C 760.28125 142.207031 908.878906 179.964844 1192.089844 255.390625 L 1192.089844 255.613281 C 908.871094 180.183594 760.273438 142.425781 611.851562 142.328125 Z M 611.851562 142.109375 "/>
<path fill-rule="nonzero" fill="rgb(58.824158%, 59.608459%, 60.392761%)" fill-opacity="1" d="M 611.851562 147.882812 C 760.28125 147.980469 908.878906 185.738281 1192.089844 261.164062 L 1192.089844 261.386719 C 908.871094 185.957031 760.273438 148.199219 611.851562 148.101562 Z M 611.851562 147.882812 "/>
<path fill-rule="nonzero" fill="rgb(58.824158%, 59.608459%, 60.392761%)" fill-opacity="1" d="M 611.851562 153.65625 C 760.28125 153.753906 908.878906 191.511719 1192.089844 266.9375 L 1192.089844 267.164062 C 908.871094 191.734375 760.277344 153.972656 611.851562 153.875 Z M 611.851562 153.65625 "/>
<path fill-rule="nonzero" fill="rgb(58.824158%, 59.608459%, 60.392761%)" fill-opacity="1" d="M 611.851562 159.429688 C 760.28125 159.527344 908.878906 197.285156 1192.089844 272.714844 L 1192.089844 272.9375 C 908.871094 197.507812 760.273438 159.746094 611.851562 159.648438 Z M 611.851562 159.429688 "/>
<path fill-rule="nonzero" fill="rgb(21.568298%, 20.391846%, 20.783997%)" fill-opacity="1" d="M 31.035156 18.886719 L 611.851562 18.886719 L 611.851562 21.886719 L 32.535156 21.886719 L 32.535156 715.660156 C 32.535156 730.75 38.707031 744.46875 48.65625 754.414062 C 58.601562 764.359375 72.320312 770.535156 87.410156 770.535156 L 611.851562 770.535156 L 611.851562 773.535156 L 87.410156 773.535156 C 71.492188 773.535156 57.023438 767.023438 46.535156 756.535156 C 36.046875 746.046875 29.535156 731.578125 29.535156 715.660156 L 29.535156 18.886719 Z M 31.035156 18.886719 "/>
<path fill-rule="nonzero" fill="rgb(96.078491%, 96.078491%, 96.078491%)" fill-opacity="1" d="M 31.035156 214.96875 C 314.617188 139.445312 463.234375 101.683594 611.851562 101.683594 L 611.851562 101.902344 C 463.238281 101.902344 314.625 139.667969 31.035156 215.195312 Z M 31.035156 214.96875 "/>
<path fill-rule="nonzero" fill="rgb(96.078491%, 96.078491%, 96.078491%)" fill-opacity="1" d="M 31.035156 209.195312 C 314.617188 133.671875 463.234375 95.910156 611.851562 95.910156 L 611.851562 96.128906 C 463.238281 96.128906 314.625 133.890625 31.035156 209.417969 Z M 31.035156 209.195312 "/>
<path fill-rule="nonzero" fill="rgb(96.078491%, 96.078491%, 96.078491%)" fill-opacity="1" d="M 31.035156 220.746094 C 314.617188 145.21875 463.234375 107.457031 611.851562 107.457031 L 611.851562 107.675781 C 463.238281 107.675781 314.625 145.441406 31.035156 220.96875 Z M 31.035156 220.746094 "/>
<path fill-rule="nonzero" fill="rgb(96.078491%, 96.078491%, 96.078491%)" fill-opacity="1" d="M 31.035156 226.519531 C 314.617188 150.996094 463.234375 113.230469 611.851562 113.230469 L 611.851562 113.449219 C 463.238281 113.453125 314.625 151.214844 31.035156 226.742188 Z M 31.035156 226.519531 "/>
<path fill-rule="nonzero" fill="rgb(78.039551%, 78.823853%, 79.608154%)" fill-opacity="1" d="M 31.035156 232.292969 C 314.617188 156.769531 463.234375 119.007812 611.851562 119.003906 L 611.851562 119.226562 C 463.238281 119.226562 314.625 156.988281 31.035156 232.515625 Z M 31.035156 232.292969 "/>
<path fill-rule="nonzero" fill="rgb(78.039551%, 78.823853%, 79.608154%)" fill-opacity="1" d="M 31.035156 238.066406 C 314.617188 162.542969 463.234375 124.78125 611.851562 124.78125 L 611.851562 125 C 463.238281 125 314.625 162.765625 31.035156 238.289062 Z M 31.035156 238.066406 "/>
<path fill-rule="nonzero" fill="rgb(78.039551%, 78.823853%, 79.608154%)" fill-opacity="1" d="M 31.035156 243.84375 C 314.617188 168.316406 463.234375 130.554688 611.851562 130.554688 L 611.851562 130.773438 C 463.238281 130.773438 314.625 168.539062 31.035156 244.066406 Z M 31.035156 243.84375 "/>
<path fill-rule="nonzero" fill="rgb(78.039551%, 78.823853%, 79.608154%)" fill-opacity="1" d="M 31.035156 249.617188 C 314.617188 174.089844 463.234375 136.328125 611.851562 136.328125 L 611.851562 136.546875 C 463.238281 136.546875 314.625 174.3125 31.035156 249.839844 Z M 31.035156 249.617188 "/>
<path fill-rule="nonzero" fill="rgb(58.824158%, 59.608459%, 60.392761%)" fill-opacity="1" d="M 31.035156 255.390625 C 314.617188 179.867188 463.234375 142.105469 611.851562 142.101562 L 611.851562 142.324219 C 463.238281 142.324219 314.625 180.085938 31.035156 255.613281 Z M 31.035156 255.390625 "/>
<path fill-rule="nonzero" fill="rgb(58.824158%, 59.608459%, 60.392761%)" fill-opacity="1" d="M 31.035156 261.164062 C 314.617188 185.640625 463.234375 147.878906 611.851562 147.878906 L 611.851562 148.097656 C 463.238281 148.097656 314.625 185.859375 31.035156 261.386719 Z M 31.035156 261.164062 "/>
<path fill-rule="nonzero" fill="rgb(58.824158%, 59.608459%, 60.392761%)" fill-opacity="1" d="M 31.035156 266.9375 C 314.617188 191.414062 463.234375 153.652344 611.851562 153.652344 L 611.851562 153.871094 C 463.238281 153.871094 314.625 191.636719 31.035156 267.164062 Z M 31.035156 266.9375 "/>
<path fill-rule="nonzero" fill="rgb(58.824158%, 59.608459%, 60.392761%)" fill-opacity="1" d="M 31.035156 272.714844 C 314.617188 197.1875 463.234375 159.425781 611.851562 159.425781 L 611.851562 159.644531 C 463.238281 159.644531 314.625 197.410156 31.035156 272.9375 Z M 31.035156 272.714844 "/>
<path fill-rule="evenodd" fill="rgb(21.568298%, 20.391846%, 20.783997%)" fill-opacity="1" d="M 46.316406 738.132812 C 55.160156 738.132812 62.335938 745.308594 62.335938 754.15625 C 62.335938 763 55.160156 770.175781 46.316406 770.175781 C 37.46875 770.175781 30.296875 763 30.296875 754.15625 C 30.296875 745.308594 37.46875 738.132812 46.316406 738.132812 "/>
<path fill-rule="nonzero" fill="rgb(82.35321%, 82.745361%, 83.529663%)" fill-opacity="1" d="M 51.816406 37.609375 C 51.816406 37.671875 51.816406 37.722656 51.8125 37.773438 C 51.808594 37.820312 51.800781 37.859375 51.792969 37.894531 C 51.78125 37.929688 51.769531 37.960938 51.753906 37.988281 C 51.738281 38.015625 51.710938 38.050781 51.671875 38.089844 C 51.632812 38.128906 51.550781 38.1875 51.425781 38.265625 C 51.300781 38.347656 51.144531 38.425781 50.960938 38.503906 C 50.773438 38.578125 50.5625 38.644531 50.320312 38.695312 C 50.082031 38.75 49.816406 38.773438 49.53125 38.773438 C 49.039062 38.773438 48.59375 38.691406 48.199219 38.527344 C 47.804688 38.363281 47.464844 38.121094 47.183594 37.804688 C 46.90625 37.480469 46.691406 37.085938 46.542969 36.613281 C 46.390625 36.144531 46.316406 35.601562 46.316406 34.988281 C 46.316406 34.359375 46.398438 33.800781 46.558594 33.308594 C 46.722656 32.816406 46.949219 32.398438 47.242188 32.058594 C 47.535156 31.714844 47.886719 31.453125 48.292969 31.273438 C 48.703125 31.09375 49.152344 31.003906 49.648438 31.003906 C 49.867188 31.003906 50.082031 31.023438 50.289062 31.066406 C 50.496094 31.105469 50.6875 31.160156 50.863281 31.222656 C 51.039062 31.285156 51.195312 31.355469 51.332031 31.4375 C 51.46875 31.519531 51.5625 31.589844 51.613281 31.640625 C 51.667969 31.691406 51.703125 31.734375 51.71875 31.761719 C 51.734375 31.789062 51.746094 31.820312 51.753906 31.855469 C 51.765625 31.894531 51.773438 31.9375 51.777344 31.988281 C 51.785156 32.039062 51.789062 32.101562 51.789062 32.171875 C 51.789062 32.25 51.785156 32.316406 51.777344 32.371094 C 51.769531 32.425781 51.757812 32.472656 51.742188 32.507812 C 51.726562 32.542969 51.707031 32.574219 51.683594 32.589844 C 51.664062 32.605469 51.636719 32.617188 51.605469 32.617188 C 51.550781 32.617188 51.476562 32.578125 51.378906 32.503906 C 51.28125 32.425781 51.15625 32.34375 51 32.25 C 50.84375 32.160156 50.660156 32.074219 50.4375 32 C 50.21875 31.921875 49.953125 31.882812 49.644531 31.882812 C 49.308594 31.882812 49 31.949219 48.726562 32.085938 C 48.453125 32.222656 48.214844 32.417969 48.019531 32.679688 C 47.824219 32.941406 47.671875 33.261719 47.566406 33.640625 C 47.460938 34.015625 47.40625 34.445312 47.40625 34.929688 C 47.40625 35.410156 47.457031 35.835938 47.5625 36.203125 C 47.664062 36.574219 47.8125 36.882812 48.003906 37.128906 C 48.199219 37.378906 48.4375 37.566406 48.71875 37.691406 C 49 37.820312 49.316406 37.886719 49.671875 37.886719 C 49.972656 37.886719 50.238281 37.847656 50.460938 37.773438 C 50.683594 37.699219 50.878906 37.613281 51.035156 37.523438 C 51.191406 37.429688 51.324219 37.347656 51.425781 37.273438 C 51.527344 37.199219 51.605469 37.164062 51.664062 37.164062 C 51.691406 37.164062 51.714844 37.167969 51.734375 37.179688 C 51.753906 37.191406 51.769531 37.214844 51.78125 37.25 C 51.792969 37.28125 51.804688 37.328125 51.808594 37.386719 C 51.816406 37.445312 51.816406 37.519531 51.816406 37.609375 Z M 57.015625 38.539062 C 57.015625 38.585938 57 38.621094 56.96875 38.644531 C 56.9375 38.667969 56.894531 38.6875 56.839844 38.699219 C 56.785156 38.710938 56.703125 38.714844 56.597656 38.714844 C 56.496094 38.714844 56.414062 38.710938 56.355469 38.699219 C 56.296875 38.6875 56.25 38.667969 56.222656 38.644531 C 56.195312 38.621094 56.183594 38.585938 56.183594 38.539062 L 56.183594 38.011719 C 55.953125 38.257812 55.695312 38.449219 55.410156 38.585938 C 55.128906 38.722656 54.828125 38.792969 54.511719 38.792969 C 54.234375 38.792969 53.984375 38.757812 53.757812 38.683594 C 53.535156 38.609375 53.34375 38.507812 53.183594 38.371094 C 53.027344 38.234375 52.902344 38.066406 52.816406 37.867188 C 52.730469 37.667969 52.683594 37.441406 52.683594 37.1875 C 52.683594 36.890625 52.746094 36.632812 52.867188 36.414062 C 52.988281 36.195312 53.160156 36.011719 53.386719 35.867188 C 53.613281 35.722656 53.890625 35.613281 54.21875 35.542969 C 54.546875 35.472656 54.917969 35.433594 55.328125 35.433594 L 56.054688 35.433594 L 56.054688 35.023438 C 56.054688 34.820312 56.03125 34.640625 55.988281 34.484375 C 55.945312 34.328125 55.878906 34.199219 55.78125 34.097656 C 55.683594 33.992188 55.5625 33.914062 55.410156 33.859375 C 55.257812 33.808594 55.070312 33.78125 54.847656 33.78125 C 54.605469 33.78125 54.394531 33.8125 54.207031 33.867188 C 54.015625 33.925781 53.847656 33.988281 53.707031 34.054688 C 53.5625 34.121094 53.445312 34.183594 53.347656 34.242188 C 53.253906 34.296875 53.183594 34.328125 53.136719 34.328125 C 53.105469 34.328125 53.078125 34.320312 53.054688 34.304688 C 53.03125 34.289062 53.007812 34.265625 52.992188 34.234375 C 52.976562 34.203125 52.960938 34.164062 52.953125 34.113281 C 52.945312 34.066406 52.941406 34.011719 52.941406 33.953125 C 52.941406 33.855469 52.949219 33.777344 52.964844 33.71875 C 52.976562 33.664062 53.007812 33.609375 53.0625 33.558594 C 53.117188 33.507812 53.207031 33.449219 53.335938 33.378906 C 53.464844 33.3125 53.613281 33.25 53.777344 33.191406 C 53.949219 33.136719 54.132812 33.089844 54.332031 33.054688 C 54.527344 33.015625 54.730469 32.996094 54.933594 32.996094 C 55.3125 32.996094 55.636719 33.039062 55.902344 33.125 C 56.167969 33.210938 56.382812 33.339844 56.546875 33.503906 C 56.710938 33.671875 56.828125 33.875 56.902344 34.121094 C 56.976562 34.367188 57.015625 34.65625 57.015625 34.984375 Z M 56.054688 36.132812 L 55.226562 36.132812 C 54.960938 36.132812 54.730469 36.15625 54.535156 36.199219 C 54.339844 36.246094 54.179688 36.3125 54.050781 36.398438 C 53.921875 36.488281 53.824219 36.59375 53.765625 36.714844 C 53.707031 36.839844 53.675781 36.980469 53.675781 37.140625 C 53.675781 37.414062 53.761719 37.628906 53.933594 37.792969 C 54.109375 37.953125 54.351562 38.035156 54.664062 38.035156 C 54.917969 38.035156 55.152344 37.972656 55.371094 37.84375 C 55.585938 37.714844 55.816406 37.515625 56.054688 37.25 Z M 61.417969 38.148438 C 61.417969 38.261719 61.410156 38.351562 61.398438 38.417969 C 61.382812 38.484375 61.355469 38.53125 61.324219 38.5625 C 61.296875 38.59375 61.246094 38.625 61.183594 38.652344 C 61.125 38.679688 61.050781 38.699219 60.972656 38.71875 C 60.890625 38.738281 60.808594 38.75 60.71875 38.761719 C 60.628906 38.773438 60.539062 38.78125 60.449219 38.78125 C 60.171875 38.78125 59.9375 38.746094 59.742188 38.671875 C 59.550781 38.597656 59.390625 38.492188 59.261719 38.34375 C 59.140625 38.195312 59.046875 38.011719 58.992188 37.785156 C 58.933594 37.5625 58.90625 37.296875 58.90625 36.992188 L 58.90625 33.910156 L 58.167969 33.910156 C 58.109375 33.910156 58.0625 33.878906 58.027344 33.816406 C 57.992188 33.753906 57.976562 33.652344 57.976562 33.511719 C 57.976562 33.4375 57.980469 33.375 57.988281 33.324219 C 58 33.273438 58.011719 33.234375 58.027344 33.199219 C 58.042969 33.167969 58.0625 33.144531 58.089844 33.128906 C 58.117188 33.113281 58.144531 33.109375 58.171875 33.109375 L 58.90625 33.109375 L 58.90625 31.855469 C 58.90625 31.828125 58.914062 31.800781 58.925781 31.777344 C 58.941406 31.753906 58.964844 31.734375 59.003906 31.71875 C 59.039062 31.699219 59.089844 31.6875 59.152344 31.679688 C 59.214844 31.671875 59.292969 31.667969 59.386719 31.667969 C 59.484375 31.667969 59.566406 31.671875 59.628906 31.679688 C 59.6875 31.6875 59.738281 31.699219 59.773438 31.71875 C 59.808594 31.734375 59.832031 31.753906 59.847656 31.777344 C 59.867188 31.800781 59.875 31.828125 59.875 31.855469 L 59.875 33.109375 L 61.226562 33.109375 C 61.257812 33.109375 61.285156 33.113281 61.308594 33.128906 C 61.332031 33.144531 61.351562 33.167969 61.371094 33.199219 C 61.386719 33.234375 61.402344 33.273438 61.40625 33.324219 C 61.414062 33.375 61.417969 33.4375 61.417969 33.511719 C 61.417969 33.652344 61.402344 33.753906 61.367188 33.816406 C 61.332031 33.878906 61.285156 33.910156 61.226562 33.910156 L 59.875 33.910156 L 59.875 36.851562 C 59.875 37.214844 59.925781 37.492188 60.035156 37.675781 C 60.140625 37.859375 60.332031 37.953125 60.613281 37.953125 C 60.703125 37.953125 60.78125 37.945312 60.851562 37.929688 C 60.921875 37.910156 60.984375 37.890625 61.039062 37.871094 C 61.09375 37.851562 61.140625 37.835938 61.179688 37.816406 C 61.21875 37.800781 61.253906 37.789062 61.285156 37.789062 C 61.304688 37.789062 61.324219 37.792969 61.339844 37.804688 C 61.359375 37.816406 61.371094 37.832031 61.382812 37.859375 C 61.390625 37.890625 61.402344 37.925781 61.40625 37.96875 C 61.414062 38.019531 61.417969 38.078125 61.417969 38.148438 Z M 66.527344 38.539062 C 66.527344 38.585938 66.507812 38.621094 66.476562 38.644531 C 66.449219 38.667969 66.402344 38.6875 66.347656 38.699219 C 66.292969 38.710938 66.214844 38.714844 66.109375 38.714844 C 66.007812 38.714844 65.925781 38.710938 65.867188 38.699219 C 65.804688 38.6875 65.761719 38.667969 65.734375 38.644531 C 65.707031 38.621094 65.695312 38.585938 65.695312 38.539062 L 65.695312 38.011719 C 65.460938 38.257812 65.207031 38.449219 64.921875 38.585938 C 64.640625 38.722656 64.339844 38.792969 64.023438 38.792969 C 63.746094 38.792969 63.492188 38.757812 63.269531 38.683594 C 63.046875 38.609375 62.851562 38.507812 62.695312 38.371094 C 62.539062 38.234375 62.414062 38.066406 62.324219 37.867188 C 62.238281 37.667969 62.195312 37.441406 62.195312 37.1875 C 62.195312 36.890625 62.253906 36.632812 62.375 36.414062 C 62.496094 36.195312 62.671875 36.011719 62.898438 35.867188 C 63.125 35.722656 63.402344 35.613281 63.730469 35.542969 C 64.058594 35.472656 64.425781 35.433594 64.835938 35.433594 L 65.5625 35.433594 L 65.5625 35.023438 C 65.5625 34.820312 65.542969 34.640625 65.5 34.484375 C 65.457031 34.328125 65.386719 34.199219 65.292969 34.097656 C 65.195312 33.992188 65.070312 33.914062 64.917969 33.859375 C 64.765625 33.808594 64.578125 33.78125 64.359375 33.78125 C 64.117188 33.78125 63.90625 33.8125 63.714844 33.867188 C 63.527344 33.925781 63.359375 33.988281 63.21875 34.054688 C 63.074219 34.121094 62.957031 34.183594 62.859375 34.242188 C 62.761719 34.296875 62.695312 34.328125 62.644531 34.328125 C 62.617188 34.328125 62.585938 34.320312 62.5625 34.304688 C 62.539062 34.289062 62.519531 34.265625 62.5 34.234375 C 62.484375 34.203125 62.472656 34.164062 62.464844 34.113281 C 62.457031 34.066406 62.453125 34.011719 62.453125 33.953125 C 62.453125 33.855469 62.460938 33.777344 62.472656 33.71875 C 62.488281 33.664062 62.519531 33.609375 62.574219 33.558594 C 62.625 33.507812 62.714844 33.449219 62.84375 33.378906 C 62.972656 33.3125 63.121094 33.25 63.289062 33.191406 C 63.457031 33.136719 63.640625 33.089844 63.839844 33.054688 C 64.039062 33.015625 64.242188 32.996094 64.445312 32.996094 C 64.824219 32.996094 65.144531 33.039062 65.410156 33.125 C 65.675781 33.210938 65.890625 33.339844 66.054688 33.503906 C 66.21875 33.671875 66.339844 33.875 66.414062 34.121094 C 66.488281 34.367188 66.527344 34.65625 66.527344 34.984375 Z M 65.5625 36.132812 L 64.738281 36.132812 C 64.472656 36.132812 64.242188 36.15625 64.046875 36.199219 C 63.851562 36.246094 63.6875 36.3125 63.558594 36.398438 C 63.429688 36.488281 63.335938 36.59375 63.277344 36.714844 C 63.214844 36.839844 63.183594 36.980469 63.183594 37.140625 C 63.183594 37.414062 63.273438 37.628906 63.445312 37.792969 C 63.621094 37.953125 63.863281 38.035156 64.175781 38.035156 C 64.429688 38.035156 64.664062 37.972656 64.882812 37.84375 C 65.097656 37.714844 65.324219 37.515625 65.5625 37.25 Z M 64.984375 30.683594 C 65.007812 30.640625 65.035156 30.605469 65.066406 30.578125 C 65.097656 30.550781 65.136719 30.527344 65.179688 30.511719 C 65.226562 30.496094 65.28125 30.484375 65.347656 30.476562 C 65.414062 30.46875 65.492188 30.46875 65.585938 30.46875 C 65.695312 30.46875 65.785156 30.472656 65.851562 30.488281 C 65.921875 30.5 65.96875 30.519531 65.996094 30.542969 C 66.023438 30.570312 66.035156 30.597656 66.03125 30.632812 C 66.027344 30.667969 66.011719 30.699219 65.980469 30.734375 L 64.917969 32.101562 C 64.886719 32.136719 64.859375 32.171875 64.832031 32.195312 C 64.808594 32.21875 64.78125 32.238281 64.746094 32.25 C 64.714844 32.265625 64.667969 32.273438 64.617188 32.277344 C 64.5625 32.285156 64.5 32.289062 64.421875 32.289062 C 64.335938 32.289062 64.265625 32.28125 64.214844 32.269531 C 64.164062 32.257812 64.128906 32.242188 64.109375 32.222656 C 64.085938 32.203125 64.078125 32.179688 64.082031 32.148438 C 64.089844 32.117188 64.105469 32.078125 64.132812 32.035156 Z M 69.269531 38.535156 C 69.269531 38.566406 69.257812 38.59375 69.242188 38.613281 C 69.226562 38.636719 69.203125 38.652344 69.167969 38.667969 C 69.132812 38.683594 69.082031 38.695312 69.023438 38.703125 C 68.957031 38.710938 68.878906 38.714844 68.78125 38.714844 C 68.6875 38.714844 68.609375 38.710938 68.546875 38.703125 C 68.484375 38.695312 68.433594 38.683594 68.398438 38.667969 C 68.359375 38.652344 68.332031 38.636719 68.320312 38.613281 C 68.308594 38.59375 68.300781 38.566406 68.300781 38.535156 L 68.300781 30.707031 C 68.300781 30.675781 68.308594 30.648438 68.320312 30.625 C 68.332031 30.601562 68.359375 30.582031 68.398438 30.566406 C 68.433594 30.550781 68.484375 30.539062 68.546875 30.53125 C 68.609375 30.523438 68.6875 30.519531 68.78125 30.519531 C 68.878906 30.519531 68.957031 30.523438 69.023438 30.53125 C 69.082031 30.539062 69.132812 30.550781 69.167969 30.566406 C 69.203125 30.582031 69.226562 30.601562 69.242188 30.625 C 69.257812 30.648438 69.269531 30.675781 69.269531 30.707031 Z M 75.957031 35.839844 C 75.957031 36.269531 75.902344 36.664062 75.789062 37.023438 C 75.675781 37.386719 75.503906 37.699219 75.28125 37.960938 C 75.058594 38.222656 74.777344 38.425781 74.4375 38.574219 C 74.097656 38.71875 73.707031 38.792969 73.261719 38.792969 C 72.828125 38.792969 72.453125 38.726562 72.128906 38.597656 C 71.808594 38.46875 71.539062 38.28125 71.324219 38.035156 C 71.109375 37.789062 70.949219 37.492188 70.84375 37.140625 C 70.738281 36.789062 70.6875 36.386719 70.6875 35.945312 C 70.6875 35.515625 70.742188 35.117188 70.851562 34.757812 C 70.964844 34.398438 71.132812 34.085938 71.355469 33.824219 C 71.578125 33.5625 71.863281 33.359375 72.199219 33.214844 C 72.535156 33.070312 72.925781 32.996094 73.375 32.996094 C 73.808594 32.996094 74.183594 33.0625 74.507812 33.191406 C 74.828125 33.320312 75.097656 33.507812 75.3125 33.753906 C 75.53125 34 75.691406 34.296875 75.796875 34.648438 C 75.90625 35 75.957031 35.398438 75.957031 35.839844 Z M 74.941406 35.902344 C 74.941406 35.617188 74.910156 35.347656 74.859375 35.09375 C 74.808594 34.839844 74.71875 34.617188 74.597656 34.425781 C 74.476562 34.234375 74.3125 34.085938 74.109375 33.972656 C 73.898438 33.859375 73.640625 33.804688 73.332031 33.804688 C 73.046875 33.804688 72.804688 33.855469 72.597656 33.957031 C 72.394531 34.058594 72.222656 34.203125 72.089844 34.390625 C 71.957031 34.574219 71.859375 34.792969 71.796875 35.046875 C 71.730469 35.300781 71.699219 35.578125 71.699219 35.878906 C 71.699219 36.167969 71.726562 36.441406 71.777344 36.695312 C 71.828125 36.949219 71.917969 37.171875 72.042969 37.359375 C 72.164062 37.550781 72.328125 37.699219 72.535156 37.8125 C 72.742188 37.921875 73 37.976562 73.308594 37.976562 C 73.589844 37.976562 73.835938 37.925781 74.042969 37.824219 C 74.25 37.722656 74.417969 37.582031 74.550781 37.398438 C 74.683594 37.214844 74.785156 36.996094 74.84375 36.742188 C 74.90625 36.488281 74.941406 36.207031 74.941406 35.902344 Z M 81.789062 33.5 C 81.789062 33.640625 81.769531 33.738281 81.734375 33.796875 C 81.695312 33.855469 81.648438 33.890625 81.589844 33.890625 L 80.832031 33.890625 C 80.96875 34.027344 81.066406 34.183594 81.121094 34.351562 C 81.175781 34.523438 81.203125 34.699219 81.203125 34.886719 C 81.203125 35.1875 81.152344 35.457031 81.054688 35.691406 C 80.957031 35.925781 80.820312 36.125 80.636719 36.285156 C 80.457031 36.449219 80.238281 36.574219 79.988281 36.660156 C 79.738281 36.746094 79.460938 36.789062 79.15625 36.789062 C 78.945312 36.789062 78.738281 36.761719 78.546875 36.703125 C 78.351562 36.648438 78.203125 36.574219 78.097656 36.488281 C 78.027344 36.558594 77.96875 36.636719 77.921875 36.730469 C 77.878906 36.820312 77.859375 36.921875 77.859375 37.039062 C 77.859375 37.175781 77.917969 37.289062 78.046875 37.378906 C 78.171875 37.46875 78.34375 37.519531 78.554688 37.527344 L 79.929688 37.585938 C 80.195312 37.59375 80.433594 37.628906 80.652344 37.691406 C 80.871094 37.757812 81.058594 37.847656 81.21875 37.96875 C 81.378906 38.089844 81.503906 38.234375 81.59375 38.410156 C 81.683594 38.582031 81.730469 38.785156 81.730469 39.015625 C 81.730469 39.257812 81.679688 39.488281 81.578125 39.707031 C 81.476562 39.925781 81.320312 40.117188 81.113281 40.28125 C 80.902344 40.449219 80.636719 40.582031 80.3125 40.675781 C 79.988281 40.769531 79.605469 40.820312 79.164062 40.820312 C 78.738281 40.820312 78.375 40.78125 78.074219 40.710938 C 77.777344 40.636719 77.53125 40.539062 77.339844 40.414062 C 77.148438 40.289062 77.011719 40.140625 76.925781 39.96875 C 76.839844 39.792969 76.796875 39.605469 76.796875 39.402344 C 76.796875 39.273438 76.8125 39.148438 76.84375 39.027344 C 76.875 38.90625 76.921875 38.789062 76.984375 38.679688 C 77.050781 38.570312 77.132812 38.464844 77.226562 38.367188 C 77.320312 38.265625 77.433594 38.167969 77.558594 38.070312 C 77.367188 37.972656 77.226562 37.851562 77.132812 37.703125 C 77.042969 37.554688 76.996094 37.394531 76.996094 37.21875 C 76.996094 36.984375 77.042969 36.769531 77.140625 36.582031 C 77.238281 36.394531 77.363281 36.226562 77.503906 36.078125 C 77.382812 35.933594 77.289062 35.769531 77.21875 35.589844 C 77.148438 35.410156 77.113281 35.1875 77.113281 34.929688 C 77.113281 34.632812 77.164062 34.359375 77.265625 34.121094 C 77.367188 33.886719 77.507812 33.683594 77.6875 33.519531 C 77.867188 33.355469 78.082031 33.230469 78.332031 33.140625 C 78.585938 33.054688 78.863281 33.007812 79.15625 33.007812 C 79.316406 33.007812 79.46875 33.015625 79.605469 33.035156 C 79.742188 33.054688 79.875 33.078125 79.996094 33.109375 L 81.589844 33.109375 C 81.65625 33.109375 81.707031 33.140625 81.738281 33.203125 C 81.773438 33.269531 81.789062 33.367188 81.789062 33.5 Z M 80.277344 34.890625 C 80.277344 34.53125 80.175781 34.25 79.980469 34.046875 C 79.785156 33.847656 79.503906 33.746094 79.140625 33.746094 C 78.953125 33.746094 78.789062 33.777344 78.652344 33.839844 C 78.511719 33.902344 78.398438 33.988281 78.304688 34.097656 C 78.214844 34.207031 78.144531 34.335938 78.097656 34.476562 C 78.054688 34.617188 78.03125 34.769531 78.03125 34.925781 C 78.03125 35.273438 78.132812 35.546875 78.328125 35.746094 C 78.527344 35.945312 78.800781 36.042969 79.15625 36.042969 C 79.347656 36.042969 79.515625 36.015625 79.65625 35.953125 C 79.796875 35.894531 79.910156 35.808594 80.003906 35.699219 C 80.09375 35.59375 80.164062 35.472656 80.210938 35.328125 C 80.253906 35.1875 80.277344 35.042969 80.277344 34.890625 Z M 80.761719 39.066406 C 80.761719 38.839844 80.667969 38.667969 80.484375 38.542969 C 80.300781 38.421875 80.046875 38.355469 79.730469 38.347656 L 78.367188 38.300781 C 78.242188 38.398438 78.140625 38.492188 78.058594 38.578125 C 77.980469 38.667969 77.914062 38.75 77.867188 38.832031 C 77.820312 38.910156 77.789062 38.988281 77.773438 39.066406 C 77.753906 39.144531 77.746094 39.226562 77.746094 39.304688 C 77.746094 39.5625 77.875 39.753906 78.132812 39.882812 C 78.390625 40.015625 78.75 40.082031 79.210938 40.082031 C 79.503906 40.082031 79.746094 40.050781 79.945312 39.996094 C 80.144531 39.9375 80.300781 39.863281 80.421875 39.769531 C 80.542969 39.675781 80.632812 39.570312 80.683594 39.449219 C 80.734375 39.328125 80.761719 39.199219 80.761719 39.066406 Z M 87.851562 35.839844 C 87.851562 36.269531 87.796875 36.664062 87.679688 37.023438 C 87.570312 37.386719 87.398438 37.699219 87.175781 37.960938 C 86.953125 38.222656 86.667969 38.425781 86.332031 38.574219 C 85.992188 38.71875 85.601562 38.792969 85.15625 38.792969 C 84.722656 38.792969 84.34375 38.726562 84.023438 38.597656 C 83.703125 38.46875 83.429688 38.28125 83.21875 38.035156 C 83.003906 37.789062 82.84375 37.492188 82.738281 37.140625 C 82.632812 36.789062 82.578125 36.386719 82.578125 35.945312 C 82.578125 35.515625 82.636719 35.117188 82.746094 34.757812 C 82.859375 34.398438 83.027344 34.085938 83.25 33.824219 C 83.472656 33.5625 83.753906 33.359375 84.089844 33.214844 C 84.425781 33.070312 84.820312 32.996094 85.269531 32.996094 C 85.703125 32.996094 86.078125 33.0625 86.402344 33.191406 C 86.722656 33.320312 86.992188 33.507812 87.207031 33.753906 C 87.421875 34 87.582031 34.296875 87.691406 34.648438 C 87.800781 35 87.851562 35.398438 87.851562 35.839844 Z M 86.832031 35.902344 C 86.832031 35.617188 86.804688 35.347656 86.753906 35.09375 C 86.703125 34.839844 86.613281 34.617188 86.492188 34.425781 C 86.371094 34.234375 86.207031 34.085938 86 33.972656 C 85.792969 33.859375 85.535156 33.804688 85.226562 33.804688 C 84.941406 33.804688 84.699219 33.855469 84.492188 33.957031 C 84.289062 34.058594 84.117188 34.203125 83.984375 34.390625 C 83.851562 34.574219 83.753906 34.792969 83.691406 35.046875 C 83.625 35.300781 83.59375 35.578125 83.59375 35.878906 C 83.59375 36.167969 83.621094 36.441406 83.671875 36.695312 C 83.722656 36.949219 83.8125 37.171875 83.9375 37.359375 C 84.058594 37.550781 84.222656 37.699219 84.429688 37.8125 C 84.636719 37.921875 84.894531 37.976562 85.203125 37.976562 C 85.484375 37.976562 85.730469 37.925781 85.9375 37.824219 C 86.144531 37.722656 86.3125 37.582031 86.445312 37.398438 C 86.578125 37.214844 86.675781 36.996094 86.738281 36.742188 C 86.800781 36.488281 86.832031 36.207031 86.832031 35.902344 Z M 96.503906 38.535156 C 96.503906 38.566406 96.5 38.59375 96.484375 38.617188 C 96.472656 38.640625 96.449219 38.660156 96.414062 38.671875 C 96.382812 38.683594 96.335938 38.695312 96.285156 38.703125 C 96.226562 38.710938 96.160156 38.714844 96.082031 38.714844 C 96 38.714844 95.933594 38.710938 95.878906 38.703125 C 95.824219 38.695312 95.78125 38.683594 95.742188 38.671875 C 95.710938 38.660156 95.683594 38.640625 95.667969 38.617188 C 95.652344 38.59375 95.644531 38.566406 95.644531 38.535156 L 95.644531 37.835938 C 95.367188 38.140625 95.078125 38.371094 94.78125 38.539062 C 94.480469 38.707031 94.152344 38.792969 93.800781 38.792969 C 93.410156 38.792969 93.082031 38.714844 92.808594 38.566406 C 92.535156 38.417969 92.3125 38.210938 92.144531 37.957031 C 91.972656 37.699219 91.847656 37.402344 91.773438 37.054688 C 91.695312 36.707031 91.652344 36.34375 91.652344 35.964844 C 91.652344 35.507812 91.703125 35.097656 91.800781 34.734375 C 91.898438 34.367188 92.042969 34.058594 92.234375 33.800781 C 92.425781 33.542969 92.664062 33.34375 92.945312 33.203125 C 93.230469 33.066406 93.554688 32.996094 93.925781 32.996094 C 94.234375 32.996094 94.519531 33.066406 94.773438 33.199219 C 95.03125 33.335938 95.285156 33.53125 95.535156 33.792969 L 95.535156 30.730469 C 95.535156 30.703125 95.539062 30.675781 95.554688 30.652344 C 95.566406 30.625 95.59375 30.605469 95.632812 30.59375 C 95.671875 30.578125 95.722656 30.566406 95.78125 30.558594 C 95.839844 30.546875 95.917969 30.542969 96.015625 30.542969 C 96.113281 30.542969 96.191406 30.546875 96.253906 30.558594 C 96.316406 30.566406 96.367188 30.578125 96.398438 30.59375 C 96.433594 30.605469 96.460938 30.625 96.480469 30.652344 C 96.496094 30.675781 96.503906 30.703125 96.503906 30.730469 Z M 95.535156 34.824219 C 95.273438 34.5 95.019531 34.253906 94.773438 34.085938 C 94.53125 33.914062 94.277344 33.828125 94.007812 33.828125 C 93.761719 33.828125 93.554688 33.890625 93.382812 34.003906 C 93.210938 34.121094 93.070312 34.277344 92.964844 34.46875 C 92.855469 34.660156 92.777344 34.875 92.730469 35.117188 C 92.679688 35.359375 92.65625 35.605469 92.65625 35.855469 C 92.65625 36.121094 92.675781 36.382812 92.71875 36.636719 C 92.757812 36.890625 92.828125 37.113281 92.929688 37.3125 C 93.035156 37.511719 93.167969 37.667969 93.335938 37.785156 C 93.503906 37.90625 93.714844 37.964844 93.96875 37.964844 C 94.097656 37.964844 94.222656 37.949219 94.339844 37.914062 C 94.460938 37.878906 94.582031 37.820312 94.707031 37.738281 C 94.832031 37.65625 94.964844 37.550781 95.097656 37.417969 C 95.234375 37.285156 95.382812 37.125 95.535156 36.933594 Z M 102.792969 35.667969 C 102.792969 35.820312 102.753906 35.929688 102.675781 35.996094 C 102.601562 36.058594 102.515625 36.089844 102.417969 36.089844 L 98.960938 36.089844 C 98.960938 36.382812 98.988281 36.648438 99.046875 36.882812 C 99.105469 37.117188 99.203125 37.316406 99.339844 37.484375 C 99.476562 37.652344 99.65625 37.78125 99.875 37.871094 C 100.09375 37.960938 100.359375 38.007812 100.675781 38.007812 C 100.925781 38.007812 101.148438 37.988281 101.34375 37.945312 C 101.539062 37.90625 101.710938 37.859375 101.851562 37.808594 C 101.992188 37.757812 102.113281 37.710938 102.203125 37.671875 C 102.296875 37.628906 102.363281 37.609375 102.410156 37.609375 C 102.4375 37.609375 102.464844 37.613281 102.484375 37.628906 C 102.503906 37.644531 102.523438 37.664062 102.535156 37.691406 C 102.546875 37.71875 102.554688 37.757812 102.5625 37.804688 C 102.566406 37.851562 102.570312 37.914062 102.570312 37.984375 C 102.570312 38.035156 102.566406 38.078125 102.5625 38.113281 C 102.558594 38.152344 102.554688 38.183594 102.550781 38.214844 C 102.542969 38.246094 102.535156 38.269531 102.519531 38.292969 C 102.503906 38.316406 102.488281 38.339844 102.46875 38.359375 C 102.445312 38.382812 102.382812 38.417969 102.277344 38.464844 C 102.171875 38.515625 102.035156 38.5625 101.867188 38.609375 C 101.699219 38.65625 101.503906 38.699219 101.285156 38.738281 C 101.0625 38.773438 100.828125 38.792969 100.578125 38.792969 C 100.144531 38.792969 99.765625 38.730469 99.4375 38.609375 C 99.113281 38.488281 98.835938 38.308594 98.613281 38.070312 C 98.390625 37.832031 98.222656 37.535156 98.109375 37.175781 C 97.996094 36.816406 97.941406 36.398438 97.941406 35.921875 C 97.941406 35.46875 98 35.0625 98.117188 34.699219 C 98.234375 34.339844 98.402344 34.03125 98.625 33.777344 C 98.84375 33.527344 99.109375 33.335938 99.421875 33.199219 C 99.734375 33.066406 100.085938 32.996094 100.472656 32.996094 C 100.886719 32.996094 101.238281 33.0625 101.53125 33.195312 C 101.820312 33.328125 102.058594 33.507812 102.246094 33.734375 C 102.4375 33.957031 102.570312 34.21875 102.660156 34.523438 C 102.746094 34.828125 102.792969 35.148438 102.792969 35.492188 Z M 101.820312 35.382812 C 101.832031 34.875 101.71875 34.476562 101.480469 34.1875 C 101.246094 33.898438 100.894531 33.753906 100.429688 33.753906 C 100.191406 33.753906 99.984375 33.800781 99.804688 33.890625 C 99.625 33.976562 99.472656 34.097656 99.351562 34.246094 C 99.230469 34.394531 99.136719 34.566406 99.070312 34.761719 C 99.003906 34.960938 98.96875 35.167969 98.960938 35.382812 Z M 111.742188 33.320312 C 111.742188 33.699219 111.679688 34.039062 111.554688 34.34375 C 111.429688 34.648438 111.25 34.910156 111.019531 35.125 C 110.789062 35.339844 110.5 35.503906 110.164062 35.621094 C 109.828125 35.738281 109.421875 35.796875 108.953125 35.796875 L 108.09375 35.796875 L 108.09375 38.527344 C 108.09375 38.558594 108.082031 38.585938 108.066406 38.609375 C 108.050781 38.636719 108.023438 38.652344 107.984375 38.667969 C 107.949219 38.679688 107.898438 38.691406 107.832031 38.699219 C 107.769531 38.710938 107.6875 38.714844 107.589844 38.714844 C 107.492188 38.714844 107.410156 38.710938 107.34375 38.699219 C 107.28125 38.691406 107.230469 38.679688 107.191406 38.667969 C 107.152344 38.652344 107.125 38.636719 107.109375 38.609375 C 107.09375 38.585938 107.085938 38.558594 107.085938 38.527344 L 107.085938 31.53125 C 107.085938 31.375 107.125 31.265625 107.207031 31.199219 C 107.289062 31.132812 107.382812 31.097656 107.484375 31.097656 L 109.109375 31.097656 C 109.273438 31.097656 109.425781 31.105469 109.578125 31.117188 C 109.730469 31.132812 109.90625 31.164062 110.113281 31.207031 C 110.316406 31.253906 110.527344 31.335938 110.738281 31.457031 C 110.953125 31.582031 111.132812 31.734375 111.28125 31.914062 C 111.429688 32.09375 111.542969 32.300781 111.625 32.535156 C 111.703125 32.773438 111.742188 33.035156 111.742188 33.320312 Z M 110.683594 33.402344 C 110.683594 33.09375 110.625 32.835938 110.507812 32.628906 C 110.394531 32.421875 110.25 32.265625 110.082031 32.164062 C 109.910156 32.0625 109.738281 32 109.554688 31.972656 C 109.375 31.945312 109.199219 31.929688 109.027344 31.929688 L 108.09375 31.929688 L 108.09375 34.96875 L 109 34.96875 C 109.304688 34.96875 109.558594 34.933594 109.757812 34.855469 C 109.960938 34.777344 110.128906 34.667969 110.265625 34.527344 C 110.402344 34.390625 110.507812 34.226562 110.578125 34.03125 C 110.648438 33.839844 110.683594 33.628906 110.683594 33.402344 Z M 116.253906 33.605469 C 116.253906 33.691406 116.253906 33.765625 116.25 33.824219 C 116.246094 33.882812 116.238281 33.929688 116.226562 33.960938 C 116.214844 33.996094 116.199219 34.019531 116.183594 34.035156 C 116.164062 34.054688 116.140625 34.0625 116.109375 34.0625 C 116.078125 34.0625 116.039062 34.054688 115.996094 34.035156 C 115.949219 34.019531 115.898438 34.003906 115.84375 33.984375 C 115.785156 33.964844 115.722656 33.949219 115.652344 33.933594 C 115.582031 33.917969 115.503906 33.910156 115.421875 33.910156 C 115.324219 33.910156 115.230469 33.929688 115.136719 33.96875 C 115.042969 34.007812 114.945312 34.074219 114.839844 34.164062 C 114.738281 34.253906 114.628906 34.371094 114.515625 34.519531 C 114.402344 34.667969 114.277344 34.851562 114.140625 35.066406 L 114.140625 38.535156 C 114.140625 38.566406 114.132812 38.59375 114.117188 38.613281 C 114.101562 38.636719 114.074219 38.652344 114.042969 38.667969 C 114.003906 38.683594 113.957031 38.695312 113.894531 38.703125 C 113.832031 38.710938 113.75 38.714844 113.652344 38.714844 C 113.5625 38.714844 113.484375 38.710938 113.417969 38.703125 C 113.359375 38.695312 113.308594 38.683594 113.273438 38.667969 C 113.234375 38.652344 113.207031 38.636719 113.195312 38.613281 C 113.179688 38.59375 113.171875 38.566406 113.171875 38.535156 L 113.171875 33.261719 C 113.171875 33.230469 113.179688 33.203125 113.191406 33.179688 C 113.203125 33.160156 113.226562 33.140625 113.261719 33.121094 C 113.296875 33.105469 113.339844 33.09375 113.398438 33.089844 C 113.453125 33.082031 113.523438 33.078125 113.613281 33.078125 C 113.699219 33.078125 113.769531 33.082031 113.828125 33.089844 C 113.882812 33.09375 113.925781 33.105469 113.960938 33.121094 C 113.988281 33.140625 114.011719 33.160156 114.027344 33.179688 C 114.039062 33.203125 114.046875 33.230469 114.046875 33.261719 L 114.046875 34.027344 C 114.191406 33.816406 114.328125 33.644531 114.453125 33.511719 C 114.582031 33.378906 114.703125 33.273438 114.816406 33.199219 C 114.925781 33.121094 115.039062 33.070312 115.152344 33.039062 C 115.261719 33.011719 115.375 32.996094 115.488281 32.996094 C 115.539062 32.996094 115.597656 33 115.660156 33.007812 C 115.726562 33.011719 115.792969 33.023438 115.863281 33.039062 C 115.933594 33.054688 115.996094 33.070312 116.054688 33.089844 C 116.109375 33.109375 116.152344 33.128906 116.171875 33.148438 C 116.199219 33.167969 116.214844 33.1875 116.222656 33.203125 C 116.230469 33.222656 116.234375 33.246094 116.242188 33.273438 C 116.246094 33.300781 116.25 33.339844 116.253906 33.394531 C 116.253906 33.445312 116.253906 33.515625 116.253906 33.605469 "/>
<path fill-rule="nonzero" fill="rgb(82.35321%, 82.745361%, 83.529663%)" fill-opacity="1" d="M 122.066406 35.839844 C 122.066406 36.269531 122.011719 36.664062 121.898438 37.023438 C 121.785156 37.386719 121.617188 37.699219 121.390625 37.960938 C 121.167969 38.222656 120.886719 38.425781 120.546875 38.574219 C 120.210938 38.71875 119.816406 38.792969 119.375 38.792969 C 118.941406 38.792969 118.5625 38.726562 118.238281 38.597656 C 117.917969 38.46875 117.648438 38.28125 117.433594 38.035156 C 117.21875 37.789062 117.058594 37.492188 116.953125 37.140625 C 116.847656 36.789062 116.796875 36.386719 116.796875 35.945312 C 116.796875 35.515625 116.851562 35.117188 116.960938 34.757812 C 117.074219 34.398438 117.242188 34.085938 117.464844 33.824219 C 117.6875 33.5625 117.972656 33.359375 118.308594 33.214844 C 118.644531 33.070312 119.035156 32.996094 119.484375 32.996094 C 119.917969 32.996094 120.296875 33.0625 120.617188 33.191406 C 120.941406 33.320312 121.210938 33.507812 121.421875 33.753906 C 121.640625 34 121.800781 34.296875 121.90625 34.648438 C 122.015625 35 122.066406 35.398438 122.066406 35.839844 Z M 121.050781 35.902344 C 121.050781 35.617188 121.023438 35.347656 120.96875 35.09375 C 120.917969 34.839844 120.828125 34.617188 120.710938 34.425781 C 120.585938 34.234375 120.421875 34.085938 120.21875 33.972656 C 120.007812 33.859375 119.75 33.804688 119.445312 33.804688 C 119.15625 33.804688 118.914062 33.855469 118.707031 33.957031 C 118.503906 34.058594 118.332031 34.203125 118.203125 34.390625 C 118.066406 34.574219 117.96875 34.792969 117.90625 35.046875 C 117.839844 35.300781 117.808594 35.578125 117.808594 35.878906 C 117.808594 36.167969 117.835938 36.441406 117.886719 36.695312 C 117.9375 36.949219 118.027344 37.171875 118.152344 37.359375 C 118.273438 37.550781 118.4375 37.699219 118.644531 37.8125 C 118.855469 37.921875 119.113281 37.976562 119.417969 37.976562 C 119.703125 37.976562 119.945312 37.925781 120.152344 37.824219 C 120.359375 37.722656 120.53125 37.582031 120.660156 37.398438 C 120.796875 37.214844 120.894531 36.996094 120.957031 36.742188 C 121.015625 36.488281 121.050781 36.207031 121.050781 35.902344 Z M 128.007812 38.535156 C 128.007812 38.566406 128.003906 38.59375 127.988281 38.617188 C 127.976562 38.640625 127.953125 38.660156 127.917969 38.671875 C 127.886719 38.683594 127.839844 38.695312 127.789062 38.703125 C 127.730469 38.710938 127.664062 38.714844 127.585938 38.714844 C 127.503906 38.714844 127.4375 38.710938 127.382812 38.703125 C 127.328125 38.695312 127.285156 38.683594 127.246094 38.671875 C 127.214844 38.660156 127.1875 38.640625 127.171875 38.617188 C 127.15625 38.59375 127.148438 38.566406 127.148438 38.535156 L 127.148438 37.835938 C 126.871094 38.140625 126.582031 38.371094 126.285156 38.539062 C 125.984375 38.707031 125.65625 38.792969 125.304688 38.792969 C 124.914062 38.792969 124.585938 38.714844 124.3125 38.566406 C 124.039062 38.417969 123.816406 38.210938 123.648438 37.957031 C 123.476562 37.699219 123.355469 37.402344 123.277344 37.054688 C 123.199219 36.707031 123.15625 36.34375 123.15625 35.964844 C 123.15625 35.507812 123.207031 35.097656 123.304688 34.734375 C 123.402344 34.367188 123.546875 34.058594 123.738281 33.800781 C 123.929688 33.542969 124.167969 33.34375 124.449219 33.203125 C 124.734375 33.066406 125.058594 32.996094 125.433594 32.996094 C 125.738281 32.996094 126.023438 33.066406 126.277344 33.199219 C 126.535156 33.335938 126.789062 33.53125 127.039062 33.792969 L 127.039062 30.730469 C 127.039062 30.703125 127.042969 30.675781 127.058594 30.652344 C 127.070312 30.625 127.097656 30.605469 127.136719 30.59375 C 127.175781 30.578125 127.226562 30.566406 127.285156 30.558594 C 127.34375 30.546875 127.421875 30.542969 127.519531 30.542969 C 127.617188 30.542969 127.695312 30.546875 127.757812 30.558594 C 127.820312 30.566406 127.871094 30.578125 127.902344 30.59375 C 127.941406 30.605469 127.964844 30.625 127.984375 30.652344 C 128 30.675781 128.007812 30.703125 128.007812 30.730469 Z M 127.039062 34.824219 C 126.777344 34.5 126.523438 34.253906 126.277344 34.085938 C 126.035156 33.914062 125.78125 33.828125 125.511719 33.828125 C 125.265625 33.828125 125.058594 33.890625 124.886719 34.003906 C 124.714844 34.121094 124.574219 34.277344 124.46875 34.46875 C 124.359375 34.660156 124.28125 34.875 124.234375 35.117188 C 124.183594 35.359375 124.160156 35.605469 124.160156 35.855469 C 124.160156 36.121094 124.179688 36.382812 124.222656 36.636719 C 124.261719 36.890625 124.332031 37.113281 124.4375 37.3125 C 124.539062 37.511719 124.671875 37.667969 124.839844 37.785156 C 125.007812 37.90625 125.21875 37.964844 125.472656 37.964844 C 125.601562 37.964844 125.726562 37.949219 125.84375 37.914062 C 125.964844 37.878906 126.085938 37.820312 126.210938 37.738281 C 126.335938 37.65625 126.46875 37.550781 126.601562 37.417969 C 126.738281 37.285156 126.886719 37.125 127.039062 36.933594 Z M 134.3125 38.535156 C 134.3125 38.566406 134.308594 38.59375 134.292969 38.613281 C 134.28125 38.636719 134.253906 38.652344 134.21875 38.667969 C 134.1875 38.683594 134.140625 38.695312 134.082031 38.703125 C 134.027344 38.710938 133.957031 38.714844 133.875 38.714844 C 133.785156 38.714844 133.710938 38.710938 133.652344 38.703125 C 133.597656 38.695312 133.554688 38.683594 133.519531 38.667969 C 133.484375 38.652344 133.464844 38.636719 133.453125 38.613281 C 133.441406 38.59375 133.4375 38.566406 133.4375 38.535156 L 133.4375 37.835938 C 133.132812 38.167969 132.835938 38.410156 132.542969 38.5625 C 132.25 38.714844 131.953125 38.792969 131.652344 38.792969 C 131.300781 38.792969 131.003906 38.734375 130.765625 38.617188 C 130.527344 38.5 130.332031 38.339844 130.183594 38.140625 C 130.035156 37.9375 129.925781 37.703125 129.863281 37.433594 C 129.800781 37.167969 129.765625 36.84375 129.765625 36.460938 L 129.765625 33.261719 C 129.765625 33.230469 129.773438 33.203125 129.789062 33.179688 C 129.800781 33.160156 129.828125 33.140625 129.867188 33.121094 C 129.90625 33.105469 129.957031 33.09375 130.019531 33.089844 C 130.082031 33.082031 130.160156 33.078125 130.253906 33.078125 C 130.347656 33.078125 130.425781 33.082031 130.488281 33.089844 C 130.550781 33.09375 130.597656 33.105469 130.636719 33.121094 C 130.671875 33.140625 130.699219 33.160156 130.714844 33.179688 C 130.730469 33.203125 130.738281 33.230469 130.738281 33.261719 L 130.738281 36.332031 C 130.738281 36.636719 130.761719 36.886719 130.808594 37.074219 C 130.851562 37.257812 130.917969 37.417969 131.011719 37.546875 C 131.101562 37.679688 131.21875 37.777344 131.359375 37.851562 C 131.5 37.925781 131.664062 37.960938 131.851562 37.960938 C 132.09375 37.960938 132.335938 37.875 132.574219 37.703125 C 132.816406 37.53125 133.070312 37.277344 133.339844 36.945312 L 133.339844 33.261719 C 133.339844 33.230469 133.347656 33.203125 133.363281 33.179688 C 133.375 33.160156 133.402344 33.140625 133.441406 33.121094 C 133.480469 33.105469 133.53125 33.09375 133.589844 33.089844 C 133.648438 33.082031 133.730469 33.078125 133.828125 33.078125 C 133.921875 33.078125 134 33.082031 134.0625 33.089844 C 134.125 33.09375 134.171875 33.105469 134.207031 33.121094 C 134.242188 33.140625 134.269531 33.160156 134.289062 33.179688 C 134.304688 33.203125 134.3125 33.230469 134.3125 33.261719 Z M 139.890625 37.730469 C 139.890625 37.800781 139.890625 37.855469 139.886719 37.90625 C 139.882812 37.953125 139.875 37.996094 139.867188 38.027344 C 139.855469 38.0625 139.84375 38.089844 139.828125 38.113281 C 139.816406 38.140625 139.785156 38.179688 139.734375 38.226562 C 139.6875 38.273438 139.601562 38.335938 139.488281 38.410156 C 139.371094 38.480469 139.238281 38.542969 139.089844 38.601562 C 138.945312 38.660156 138.785156 38.703125 138.613281 38.738281 C 138.441406 38.773438 138.261719 38.792969 138.078125 38.792969 C 137.703125 38.792969 137.367188 38.730469 137.074219 38.605469 C 136.78125 38.480469 136.535156 38.296875 136.335938 38.058594 C 136.140625 37.816406 135.988281 37.519531 135.886719 37.171875 C 135.785156 36.824219 135.730469 36.417969 135.730469 35.964844 C 135.730469 35.441406 135.792969 34.996094 135.921875 34.621094 C 136.046875 34.25 136.222656 33.945312 136.445312 33.707031 C 136.664062 33.46875 136.921875 33.289062 137.222656 33.175781 C 137.519531 33.0625 137.84375 33.003906 138.191406 33.003906 C 138.359375 33.003906 138.523438 33.019531 138.679688 33.050781 C 138.839844 33.082031 138.984375 33.121094 139.117188 33.171875 C 139.25 33.222656 139.371094 33.28125 139.472656 33.347656 C 139.574219 33.414062 139.652344 33.46875 139.699219 33.519531 C 139.746094 33.566406 139.777344 33.601562 139.792969 33.628906 C 139.8125 33.65625 139.828125 33.6875 139.835938 33.726562 C 139.847656 33.765625 139.855469 33.804688 139.863281 33.851562 C 139.867188 33.898438 139.867188 33.957031 139.867188 34.027344 C 139.867188 34.179688 139.847656 34.285156 139.816406 34.347656 C 139.78125 34.410156 139.738281 34.4375 139.683594 34.4375 C 139.628906 34.4375 139.558594 34.40625 139.484375 34.34375 C 139.40625 34.277344 139.3125 34.207031 139.195312 34.128906 C 139.078125 34.050781 138.9375 33.980469 138.769531 33.914062 C 138.601562 33.847656 138.40625 33.816406 138.179688 33.816406 C 137.714844 33.816406 137.359375 33.996094 137.113281 34.351562 C 136.863281 34.710938 136.738281 35.230469 136.738281 35.910156 C 136.738281 36.25 136.773438 36.546875 136.835938 36.804688 C 136.898438 37.058594 136.996094 37.273438 137.121094 37.445312 C 137.246094 37.617188 137.398438 37.746094 137.578125 37.828125 C 137.761719 37.914062 137.96875 37.953125 138.203125 37.953125 C 138.425781 37.953125 138.621094 37.917969 138.789062 37.847656 C 138.957031 37.777344 139.101562 37.699219 139.226562 37.617188 C 139.347656 37.53125 139.453125 37.457031 139.539062 37.390625 C 139.621094 37.320312 139.683594 37.285156 139.734375 37.285156 C 139.757812 37.285156 139.785156 37.292969 139.804688 37.308594 C 139.824219 37.324219 139.839844 37.351562 139.851562 37.390625 C 139.867188 37.425781 139.875 37.472656 139.882812 37.527344 C 139.886719 37.585938 139.890625 37.652344 139.890625 37.730469 Z M 143.914062 38.148438 C 143.914062 38.261719 143.90625 38.351562 143.894531 38.417969 C 143.878906 38.484375 143.851562 38.53125 143.820312 38.5625 C 143.792969 38.59375 143.742188 38.625 143.679688 38.652344 C 143.621094 38.679688 143.546875 38.699219 143.46875 38.71875 C 143.386719 38.738281 143.304688 38.75 143.214844 38.761719 C 143.125 38.773438 143.035156 38.78125 142.945312 38.78125 C 142.667969 38.78125 142.4375 38.746094 142.238281 38.671875 C 142.046875 38.597656 141.886719 38.492188 141.757812 38.34375 C 141.636719 38.195312 141.542969 38.011719 141.488281 37.785156 C 141.429688 37.5625 141.402344 37.296875 141.402344 36.992188 L 141.402344 33.910156 L 140.664062 33.910156 C 140.605469 33.910156 140.558594 33.878906 140.523438 33.816406 C 140.488281 33.753906 140.472656 33.652344 140.472656 33.511719 C 140.472656 33.4375 140.476562 33.375 140.484375 33.324219 C 140.496094 33.273438 140.507812 33.234375 140.523438 33.199219 C 140.539062 33.167969 140.558594 33.144531 140.585938 33.128906 C 140.613281 33.113281 140.640625 33.109375 140.667969 33.109375 L 141.402344 33.109375 L 141.402344 31.855469 C 141.402344 31.828125 141.410156 31.800781 141.421875 31.777344 C 141.4375 31.753906 141.460938 31.734375 141.5 31.71875 C 141.535156 31.699219 141.585938 31.6875 141.648438 31.679688 C 141.710938 31.671875 141.789062 31.667969 141.882812 31.667969 C 141.980469 31.667969 142.0625 31.671875 142.125 31.679688 C 142.183594 31.6875 142.234375 31.699219 142.269531 31.71875 C 142.304688 31.734375 142.328125 31.753906 142.34375 31.777344 C 142.363281 31.800781 142.371094 31.828125 142.371094 31.855469 L 142.371094 33.109375 L 143.722656 33.109375 C 143.753906 33.109375 143.78125 33.113281 143.804688 33.128906 C 143.828125 33.144531 143.847656 33.167969 143.867188 33.199219 C 143.882812 33.234375 143.898438 33.273438 143.902344 33.324219 C 143.910156 33.375 143.914062 33.4375 143.914062 33.511719 C 143.914062 33.652344 143.898438 33.753906 143.863281 33.816406 C 143.828125 33.878906 143.78125 33.910156 143.722656 33.910156 L 142.371094 33.910156 L 142.371094 36.851562 C 142.371094 37.214844 142.421875 37.492188 142.53125 37.675781 C 142.636719 37.859375 142.828125 37.953125 143.109375 37.953125 C 143.199219 37.953125 143.277344 37.945312 143.347656 37.929688 C 143.417969 37.910156 143.480469 37.890625 143.535156 37.871094 C 143.589844 37.851562 143.636719 37.835938 143.675781 37.816406 C 143.714844 37.800781 143.75 37.789062 143.78125 37.789062 C 143.800781 37.789062 143.820312 37.792969 143.835938 37.804688 C 143.855469 37.816406 143.867188 37.832031 143.878906 37.859375 C 143.886719 37.890625 143.898438 37.925781 143.902344 37.96875 C 143.910156 38.019531 143.914062 38.078125 143.914062 38.148438 Z M 149.980469 35.839844 C 149.980469 36.269531 149.921875 36.664062 149.808594 37.023438 C 149.699219 37.386719 149.527344 37.699219 149.304688 37.960938 C 149.078125 38.222656 148.796875 38.425781 148.460938 38.574219 C 148.121094 38.71875 147.730469 38.792969 147.285156 38.792969 C 146.851562 38.792969 146.472656 38.726562 146.152344 38.597656 C 145.828125 38.46875 145.558594 38.28125 145.34375 38.035156 C 145.132812 37.789062 144.972656 37.492188 144.867188 37.140625 C 144.757812 36.789062 144.707031 36.386719 144.707031 35.945312 C 144.707031 35.515625 144.765625 35.117188 144.875 34.757812 C 144.984375 34.398438 145.152344 34.085938 145.378906 33.824219 C 145.601562 33.5625 145.882812 33.359375 146.21875 33.214844 C 146.554688 33.070312 146.949219 32.996094 147.394531 32.996094 C 147.828125 32.996094 148.207031 33.0625 148.53125 33.191406 C 148.851562 33.320312 149.121094 33.507812 149.335938 33.753906 C 149.550781 34 149.710938 34.296875 149.820312 34.648438 C 149.929688 35 149.980469 35.398438 149.980469 35.839844 Z M 148.960938 35.902344 C 148.960938 35.617188 148.933594 35.347656 148.882812 35.09375 C 148.828125 34.839844 148.742188 34.617188 148.621094 34.425781 C 148.5 34.234375 148.335938 34.085938 148.128906 33.972656 C 147.921875 33.859375 147.664062 33.804688 147.355469 33.804688 C 147.070312 33.804688 146.824219 33.855469 146.621094 33.957031 C 146.414062 34.058594 146.246094 34.203125 146.113281 34.390625 C 145.980469 34.574219 145.882812 34.792969 145.816406 35.046875 C 145.753906 35.300781 145.722656 35.578125 145.722656 35.878906 C 145.722656 36.167969 145.746094 36.441406 145.800781 36.695312 C 145.851562 36.949219 145.941406 37.171875 146.0625 37.359375 C 146.1875 37.550781 146.351562 37.699219 146.558594 37.8125 C 146.765625 37.921875 147.023438 37.976562 147.332031 37.976562 C 147.613281 37.976562 147.859375 37.925781 148.0625 37.824219 C 148.273438 37.722656 148.441406 37.582031 148.574219 37.398438 C 148.707031 37.214844 148.804688 36.996094 148.867188 36.742188 C 148.929688 36.488281 148.960938 36.207031 148.960938 35.902344 Z M 154.714844 37.097656 C 154.714844 37.367188 154.664062 37.609375 154.566406 37.820312 C 154.464844 38.03125 154.324219 38.207031 154.140625 38.351562 C 153.957031 38.496094 153.738281 38.605469 153.484375 38.679688 C 153.230469 38.753906 152.953125 38.792969 152.644531 38.792969 C 152.460938 38.792969 152.28125 38.777344 152.109375 38.75 C 151.941406 38.71875 151.789062 38.679688 151.652344 38.636719 C 151.519531 38.59375 151.402344 38.542969 151.308594 38.496094 C 151.21875 38.445312 151.148438 38.402344 151.105469 38.363281 C 151.0625 38.324219 151.03125 38.269531 151.011719 38.199219 C 150.992188 38.128906 150.980469 38.035156 150.980469 37.914062 C 150.980469 37.839844 150.984375 37.777344 150.992188 37.722656 C 151 37.675781 151.011719 37.632812 151.023438 37.601562 C 151.035156 37.570312 151.050781 37.550781 151.074219 37.535156 C 151.09375 37.519531 151.121094 37.515625 151.144531 37.515625 C 151.191406 37.515625 151.253906 37.539062 151.335938 37.59375 C 151.421875 37.648438 151.523438 37.703125 151.648438 37.765625 C 151.769531 37.828125 151.914062 37.886719 152.082031 37.9375 C 152.25 37.992188 152.445312 38.019531 152.664062 38.019531 C 152.828125 38.019531 152.976562 38 153.109375 37.964844 C 153.242188 37.929688 153.359375 37.878906 153.457031 37.8125 C 153.550781 37.742188 153.628906 37.65625 153.679688 37.550781 C 153.734375 37.445312 153.757812 37.320312 153.757812 37.175781 C 153.757812 37.027344 153.722656 36.902344 153.644531 36.800781 C 153.570312 36.699219 153.46875 36.609375 153.34375 36.53125 C 153.21875 36.453125 153.078125 36.382812 152.921875 36.324219 C 152.765625 36.261719 152.605469 36.199219 152.4375 36.132812 C 152.273438 36.066406 152.109375 35.992188 151.953125 35.90625 C 151.792969 35.824219 151.652344 35.722656 151.527344 35.597656 C 151.402344 35.476562 151.300781 35.332031 151.226562 35.164062 C 151.148438 34.996094 151.113281 34.796875 151.113281 34.5625 C 151.113281 34.355469 151.152344 34.15625 151.230469 33.964844 C 151.3125 33.777344 151.433594 33.609375 151.589844 33.46875 C 151.75 33.328125 151.953125 33.210938 152.191406 33.125 C 152.433594 33.039062 152.714844 32.996094 153.035156 32.996094 C 153.171875 32.996094 153.3125 33.007812 153.457031 33.03125 C 153.597656 33.054688 153.722656 33.085938 153.835938 33.121094 C 153.949219 33.15625 154.046875 33.191406 154.125 33.234375 C 154.207031 33.273438 154.265625 33.3125 154.308594 33.34375 C 154.347656 33.375 154.375 33.402344 154.390625 33.425781 C 154.402344 33.449219 154.414062 33.476562 154.417969 33.503906 C 154.425781 33.53125 154.429688 33.570312 154.4375 33.613281 C 154.441406 33.65625 154.445312 33.707031 154.445312 33.769531 C 154.445312 33.835938 154.441406 33.894531 154.4375 33.941406 C 154.429688 33.992188 154.421875 34.03125 154.40625 34.0625 C 154.394531 34.09375 154.378906 34.117188 154.359375 34.128906 C 154.335938 34.144531 154.316406 34.152344 154.292969 34.152344 C 154.257812 34.152344 154.207031 34.128906 154.140625 34.085938 C 154.074219 34.042969 153.988281 34 153.882812 33.949219 C 153.777344 33.902344 153.652344 33.855469 153.507812 33.8125 C 153.367188 33.769531 153.207031 33.746094 153.023438 33.746094 C 152.859375 33.746094 152.714844 33.765625 152.585938 33.804688 C 152.464844 33.839844 152.359375 33.894531 152.28125 33.960938 C 152.199219 34.027344 152.140625 34.109375 152.097656 34.203125 C 152.058594 34.296875 152.039062 34.398438 152.039062 34.507812 C 152.039062 34.660156 152.074219 34.789062 152.152344 34.894531 C 152.230469 34.996094 152.332031 35.085938 152.460938 35.164062 C 152.582031 35.242188 152.726562 35.3125 152.886719 35.375 C 153.046875 35.4375 153.210938 35.503906 153.375 35.570312 C 153.542969 35.636719 153.707031 35.710938 153.867188 35.792969 C 154.03125 35.875 154.171875 35.972656 154.300781 36.089844 C 154.421875 36.207031 154.523438 36.347656 154.601562 36.511719 C 154.675781 36.675781 154.714844 36.871094 154.714844 37.097656 "/>
<path fill-rule="evenodd" fill="rgb(21.568298%, 20.391846%, 20.783997%)" fill-opacity="1" d="M 278.839844 47.730469 L 30.796875 47.730469 L 30.796875 72.195312 L 289.640625 72.195312 Z M 278.839844 47.730469 "/>
<path fill-rule="evenodd" fill="rgb(37.646484%, 37.646484%, 38.430786%)" fill-opacity="1" d="M 286.039062 47.730469 L 282.441406 47.730469 L 293.242188 72.195312 L 296.839844 72.195312 Z M 286.039062 47.730469 "/>
<path fill-rule="evenodd" fill="rgb(51.765442%, 52.549744%, 53.334045%)" fill-opacity="1" d="M 293.242188 47.730469 L 289.640625 47.730469 L 300.441406 72.195312 L 304.039062 72.195312 Z M 293.242188 47.730469 "/>
<path fill-rule="evenodd" fill="rgb(66.275024%, 67.059326%, 68.235779%)" fill-opacity="1" d="M 300.441406 47.730469 L 296.839844 47.730469 L 307.640625 72.195312 L 311.242188 72.195312 Z M 300.441406 47.730469 "/>
<path fill-rule="evenodd" fill="rgb(82.35321%, 82.745361%, 83.529663%)" fill-opacity="1" d="M 307.640625 47.730469 L 304.039062 47.730469 L 314.839844 72.195312 L 318.441406 72.195312 Z M 307.640625 47.730469 "/>
<path fill-rule="evenodd" fill="rgb(94.509888%, 94.509888%, 94.902039%)" fill-opacity="1" d="M 314.839844 47.730469 L 311.242188 47.730469 L 322.039062 72.195312 L 325.640625 72.195312 Z M 314.839844 47.730469 "/>
<path fill-rule="nonzero" fill="rgb(99.607849%, 99.607849%, 99.607849%)" fill-opacity="1" d="M 45.246094 756.074219 C 45.246094 756.476562 45.175781 756.84375 45.035156 757.164062 C 44.894531 757.5 44.6875 757.78125 44.417969 758.003906 C 44.167969 758.242188 43.832031 758.425781 43.453125 758.535156 C 43.0625 758.675781 42.628906 758.730469 42.136719 758.730469 C 41.84375 758.730469 41.5625 758.703125 41.3125 758.664062 C 41.046875 758.621094 40.820312 758.550781 40.625 758.496094 C 40.414062 758.425781 40.246094 758.355469 40.121094 758.285156 C 39.980469 758.214844 39.898438 758.160156 39.871094 758.128906 C 39.839844 758.101562 39.8125 758.074219 39.785156 758.03125 C 39.773438 758.003906 39.757812 757.960938 39.742188 757.921875 C 39.730469 757.878906 39.714844 757.820312 39.714844 757.753906 C 39.703125 757.695312 39.703125 757.613281 39.703125 757.515625 C 39.703125 757.347656 39.714844 757.234375 39.757812 757.179688 C 39.785156 757.109375 39.828125 757.082031 39.898438 757.082031 C 39.941406 757.082031 40.023438 757.121094 40.136719 757.191406 C 40.261719 757.261719 40.429688 757.332031 40.613281 757.417969 C 40.808594 757.5 41.03125 757.585938 41.296875 757.65625 C 41.5625 757.722656 41.84375 757.765625 42.164062 757.765625 C 42.472656 757.765625 42.738281 757.722656 42.976562 757.65625 C 43.214844 757.570312 43.410156 757.457031 43.566406 757.316406 C 43.71875 757.179688 43.84375 757.011719 43.929688 756.8125 C 44 756.617188 44.042969 756.40625 44.042969 756.183594 C 44.042969 755.933594 43.984375 755.707031 43.886719 755.5 C 43.789062 755.300781 43.636719 755.132812 43.441406 754.980469 C 43.257812 754.839844 43.003906 754.726562 42.726562 754.644531 C 42.445312 754.574219 42.125 754.53125 41.757812 754.53125 L 40.890625 754.53125 C 40.847656 754.53125 40.808594 754.519531 40.78125 754.503906 C 40.738281 754.492188 40.710938 754.460938 40.683594 754.433594 C 40.667969 754.390625 40.640625 754.351562 40.625 754.28125 C 40.613281 754.222656 40.597656 754.152344 40.597656 754.054688 C 40.597656 753.972656 40.613281 753.902344 40.625 753.847656 C 40.640625 753.789062 40.652344 753.734375 40.683594 753.707031 C 40.710938 753.679688 40.738281 753.648438 40.765625 753.636719 C 40.792969 753.609375 40.835938 753.609375 40.878906 753.609375 L 41.648438 753.609375 C 41.941406 753.609375 42.222656 753.566406 42.460938 753.496094 C 42.699219 753.414062 42.894531 753.300781 43.0625 753.160156 C 43.230469 753.007812 43.355469 752.839844 43.453125 752.628906 C 43.539062 752.433594 43.578125 752.207031 43.578125 751.957031 C 43.578125 751.773438 43.550781 751.59375 43.496094 751.425781 C 43.441406 751.257812 43.339844 751.117188 43.230469 750.988281 C 43.105469 750.863281 42.949219 750.78125 42.769531 750.695312 C 42.585938 750.625 42.375 750.597656 42.136719 750.597656 C 41.871094 750.597656 41.632812 750.640625 41.410156 750.722656 C 41.1875 750.792969 40.988281 750.878906 40.820312 750.976562 C 40.640625 751.058594 40.5 751.15625 40.386719 751.226562 C 40.277344 751.3125 40.191406 751.355469 40.148438 751.355469 C 40.109375 751.355469 40.078125 751.355469 40.066406 751.339844 C 40.039062 751.328125 40.007812 751.296875 39.996094 751.269531 C 39.980469 751.226562 39.96875 751.1875 39.96875 751.128906 C 39.953125 751.058594 39.953125 750.976562 39.953125 750.878906 C 39.953125 750.808594 39.953125 750.753906 39.96875 750.695312 C 39.96875 750.652344 39.980469 750.597656 39.996094 750.570312 C 40.007812 750.527344 40.023438 750.484375 40.039062 750.457031 C 40.050781 750.429688 40.078125 750.386719 40.136719 750.347656 C 40.175781 750.304688 40.261719 750.234375 40.386719 750.164062 C 40.527344 750.082031 40.683594 749.996094 40.878906 749.914062 C 41.074219 749.828125 41.296875 749.773438 41.550781 749.714844 C 41.800781 749.660156 42.082031 749.632812 42.363281 749.632812 C 42.78125 749.632812 43.132812 749.6875 43.453125 749.785156 C 43.761719 749.898438 44.011719 750.039062 44.222656 750.234375 C 44.433594 750.417969 44.585938 750.652344 44.6875 750.921875 C 44.785156 751.1875 44.839844 751.480469 44.839844 751.800781 C 44.839844 752.082031 44.796875 752.335938 44.726562 752.570312 C 44.65625 752.808594 44.546875 753.035156 44.40625 753.214844 C 44.265625 753.398438 44.097656 753.550781 43.886719 753.679688 C 43.675781 753.816406 43.453125 753.902344 43.171875 753.957031 L 43.171875 753.972656 C 43.480469 754 43.761719 754.070312 44.011719 754.195312 C 44.265625 754.320312 44.488281 754.460938 44.671875 754.644531 C 44.855469 754.828125 44.992188 755.050781 45.089844 755.289062 C 45.191406 755.539062 45.246094 755.792969 45.246094 756.074219 M 52.425781 758.101562 C 52.425781 758.1875 52.425781 758.257812 52.414062 758.3125 C 52.398438 758.382812 52.386719 758.4375 52.359375 758.480469 C 52.34375 758.523438 52.316406 758.550781 52.289062 758.578125 C 52.246094 758.59375 52.203125 758.605469 52.175781 758.605469 L 47.277344 758.605469 C 47.207031 758.605469 47.148438 758.59375 47.109375 758.578125 C 47.066406 758.5625 47.023438 758.535156 46.980469 758.507812 C 46.953125 758.464844 46.925781 758.410156 46.910156 758.339844 C 46.898438 758.285156 46.882812 758.199219 46.882812 758.089844 C 46.882812 758.003906 46.882812 757.921875 46.898438 757.851562 C 46.898438 757.792969 46.910156 757.722656 46.941406 757.667969 C 46.96875 757.625 46.996094 757.570312 47.023438 757.515625 C 47.066406 757.472656 47.109375 757.417969 47.164062 757.347656 L 48.941406 755.527344 C 49.347656 755.105469 49.667969 754.742188 49.921875 754.40625 C 50.171875 754.070312 50.355469 753.761719 50.496094 753.496094 C 50.621094 753.214844 50.71875 752.976562 50.761719 752.753906 C 50.804688 752.53125 50.816406 752.320312 50.816406 752.125 C 50.816406 751.929688 50.789062 751.730469 50.71875 751.5625 C 50.648438 751.382812 50.566406 751.226562 50.441406 751.101562 C 50.3125 750.960938 50.160156 750.863281 49.964844 750.78125 C 49.78125 750.710938 49.558594 750.667969 49.320312 750.667969 C 49.027344 750.667969 48.773438 750.710938 48.550781 750.78125 C 48.3125 750.863281 48.117188 750.949219 47.949219 751.03125 C 47.78125 751.128906 47.625 751.214844 47.511719 751.296875 C 47.402344 751.367188 47.316406 751.410156 47.261719 751.410156 C 47.21875 751.410156 47.191406 751.394531 47.164062 751.382812 C 47.148438 751.367188 47.121094 751.339844 47.109375 751.296875 C 47.09375 751.257812 47.078125 751.199219 47.066406 751.128906 C 47.050781 751.058594 47.050781 750.976562 47.050781 750.878906 C 47.050781 750.808594 47.050781 750.753906 47.066406 750.710938 C 47.066406 750.652344 47.066406 750.613281 47.078125 750.570312 C 47.09375 750.542969 47.109375 750.5 47.121094 750.472656 C 47.148438 750.445312 47.175781 750.402344 47.234375 750.347656 C 47.289062 750.304688 47.386719 750.234375 47.527344 750.164062 C 47.652344 750.082031 47.820312 749.996094 48.03125 749.914062 C 48.226562 749.828125 48.453125 749.773438 48.703125 749.714844 C 48.941406 749.660156 49.195312 749.632812 49.460938 749.632812 C 49.894531 749.632812 50.273438 749.6875 50.59375 749.8125 C 50.914062 749.925781 51.179688 750.09375 51.390625 750.304688 C 51.601562 750.515625 51.753906 750.765625 51.867188 751.03125 C 51.964844 751.3125 52.023438 751.605469 52.023438 751.929688 C 52.023438 752.207031 51.992188 752.488281 51.953125 752.769531 C 51.894531 753.046875 51.796875 753.355469 51.628906 753.679688 C 51.460938 754.015625 51.238281 754.363281 50.929688 754.769531 C 50.621094 755.160156 50.214844 755.625 49.710938 756.140625 L 48.3125 757.613281 L 52.160156 757.613281 C 52.203125 757.613281 52.230469 757.625 52.273438 757.640625 C 52.300781 757.667969 52.328125 757.695312 52.359375 757.738281 C 52.386719 757.78125 52.398438 757.820312 52.414062 757.890625 C 52.425781 757.949219 52.425781 758.019531 52.425781 758.101562 "/>
</svg>
